<svg width="138" height="133" viewBox="0 0 138 133" fill="none" xmlns="http://www.w3.org/2000/svg">
    <g filter="url(#filter0_d_152_1591)">
        <path d="M59.541 6.42951C61.422 7.31467 63.2849 8.24029 65.1192 9.21857C68.9441 9.82373 71.7347 9.65698 75.1714 7.82404C79.5482 5.76437 83.6077 5.68565 88.3614 6.42951C93.0927 8.61545 95.4546 13.0937 97.6582 17.5858C97.6582 18.1993 97.6582 18.8129 97.6582 19.4451C100.733 20.8801 103.634 21.5628 106.955 22.118C110.977 22.9069 113.481 23.6921 116.252 26.8826C118.674 30.9865 119.22 34.3246 118.576 39.0267C117.962 43.5397 118.55 46.106 120.9 50.1248C122.296 51.9009 123.736 53.594 125.266 55.2563C127.654 57.9662 127.721 60.4329 127.67 63.9902C127.169 67.7005 124.877 70.1893 122.44 72.8949C119.527 76.1635 118.287 78.2699 118.111 82.6639C118.399 84.4471 118.399 84.4471 118.692 86.2664C119.318 90.561 118.368 93.7837 116.252 97.5389C112.772 101.693 108.082 102.341 102.997 103.477C100.382 104.016 100.382 104.016 97.6582 104.976C97.0009 106.51 96.3886 108.064 95.7989 109.625C93.684 113.15 91.8861 115.842 88.3614 117.992C82.3182 118.923 77.9064 118.056 72.5567 115.203C68.7318 114.598 65.9412 114.765 62.5044 116.597C58.1276 118.657 54.0681 118.736 49.3145 117.992C44.5831 115.806 42.2213 111.328 40.0176 106.836C40.0176 106.222 40.0176 105.609 40.0176 104.976C36.9427 103.541 34.0422 102.859 30.7207 102.304C26.6985 101.515 24.1946 100.729 21.4239 97.5389C18.656 92.752 18.5622 89.0306 19.3575 83.6735C19.8923 78.6627 17.3147 75.5075 14.3931 71.7401C13.5284 70.683 13.5284 70.683 12.6463 69.6047C10.235 66.583 9.95013 64.3102 10.0061 60.4313C10.5064 56.7211 12.7992 54.2322 15.2356 51.5266C18.1485 48.2581 19.3887 46.1517 19.5645 41.7576C19.3727 40.5688 19.181 39.38 18.9834 38.1551C18.3582 33.8606 19.3079 30.6378 21.4239 26.8826C24.9042 22.7287 29.5934 22.0801 34.6792 20.945C37.2937 20.4056 37.2937 20.4056 40.0176 19.4451C40.675 17.9112 41.2872 16.3578 41.877 14.7967C46.6308 6.87374 50.5012 5.40015 59.541 6.42951Z" fill="url(#paint0_linear_152_1591)"/>
        <path d="M59.541 6.42951C61.422 7.31467 63.2849 8.24029 65.1192 9.21857C68.9441 9.82373 71.7347 9.65698 75.1714 7.82404C79.5482 5.76437 83.6077 5.68565 88.3614 6.42951C93.0927 8.61545 95.4546 13.0937 97.6582 17.5858C97.6582 18.1993 97.6582 18.8129 97.6582 19.4451C100.733 20.8801 103.634 21.5628 106.955 22.118C110.977 22.9069 113.481 23.6921 116.252 26.8826C118.674 30.9865 119.22 34.3246 118.576 39.0267C117.962 43.5397 118.55 46.106 120.9 50.1248C122.296 51.9009 123.736 53.594 125.266 55.2563C127.654 57.9662 127.721 60.4329 127.67 63.9902C127.169 67.7005 124.877 70.1893 122.44 72.8949C119.527 76.1635 118.287 78.2699 118.111 82.6639C118.399 84.4471 118.399 84.4471 118.692 86.2664C119.318 90.561 118.368 93.7837 116.252 97.5389C112.772 101.693 108.082 102.341 102.997 103.477C100.382 104.016 100.382 104.016 97.6582 104.976C97.0009 106.51 96.3886 108.064 95.7989 109.625C93.684 113.15 91.8861 115.842 88.3614 117.992C82.3182 118.923 77.9064 118.056 72.5567 115.203C68.7318 114.598 65.9412 114.765 62.5044 116.597C58.1276 118.657 54.0681 118.736 49.3145 117.992C44.5831 115.806 42.2213 111.328 40.0176 106.836C40.0176 106.222 40.0176 105.609 40.0176 104.976C36.9427 103.541 34.0422 102.859 30.7207 102.304C26.6985 101.515 24.1946 100.729 21.4239 97.5389C18.656 92.752 18.5622 89.0306 19.3575 83.6735C19.8923 78.6627 17.3147 75.5075 14.3931 71.7401C13.5284 70.683 13.5284 70.683 12.6463 69.6047C10.235 66.583 9.95013 64.3102 10.0061 60.4313C10.5064 56.7211 12.7992 54.2322 15.2356 51.5266C18.1485 48.2581 19.3887 46.1517 19.5645 41.7576C19.3727 40.5688 19.181 39.38 18.9834 38.1551C18.3582 33.8606 19.3079 30.6378 21.4239 26.8826C24.9042 22.7287 29.5934 22.0801 34.6792 20.945C37.2937 20.4056 37.2937 20.4056 40.0176 19.4451C40.675 17.9112 41.2872 16.3578 41.877 14.7967C46.6308 6.87374 50.5012 5.40015 59.541 6.42951Z" fill="url(#paint1_linear_152_1591)"/>
        <path d="M87.5443 35.7701C94.021 40.7387 98.8969 46.5769 100.447 54.7742C101.283 65.3704 100.763 74.5291 93.8887 83.2205C88.0114 89.474 81.6655 93.4582 72.9852 94.0426C63.1935 94.31 55.8013 93.4201 48.0362 86.9065C41.5132 80.6979 37.0357 73.2131 36.1101 64.0638C35.8928 54.2531 39.0632 46.3018 45.5958 38.9695C57.7215 27.98 73.9395 26.5628 87.5443 35.7701Z" fill="url(#paint2_linear_152_1591)"/>
        <path d="M83.0737 45.8242C85.5723 46.4053 85.5723 46.4053 87.4316 48.2646C87.8674 50.8068 87.8674 50.8068 87.4316 53.8428C85.7822 56.009 84.2417 57.7686 82.3183 59.6533C81.2852 60.706 80.2551 61.7616 79.2279 62.8201C78.7217 63.3402 78.2155 63.8603 77.694 64.3962C75.0813 67.2187 72.8934 70.3679 70.7081 73.526C67.9626 76.021 65.9976 76.2069 62.3301 76.1553C59.6608 74.4085 59.6608 74.4085 57.2749 71.9136C56.4707 71.107 55.6666 70.3005 54.8381 69.4695C52.7292 66.4186 52.4981 64.9137 53.0332 61.2803C54.8926 59.4209 54.8926 59.4209 57.5073 59.0723C61.1038 59.4954 62.4217 60.8223 65.1191 63.1396C66.3788 61.7457 67.6375 60.351 68.896 58.9561C70.0429 57.6941 70.0429 57.6941 71.2129 56.4067C72.6127 54.8281 73.9814 53.2205 75.2948 51.5694C79.3209 46.5323 79.3209 46.5323 83.0737 45.8242Z" fill="#FCFEFC"/>
        <path d="M89.2912 37.11C87.4318 38.0397 87.4318 38.0397 85.5761 37.5203C84.8271 37.2507 84.078 36.981 83.3063 36.7032C74.928 34.0873 66.6668 34.4744 58.6115 38.0397C51.1479 42.43 45.6793 48.4695 42.8068 56.6334C40.6783 65.6239 41.7975 73.9903 44.6662 82.6647C41.8061 80.0744 40.2617 77.9066 38.9138 74.2975C38.613 73.5113 38.3121 72.7251 38.0022 71.9151C35.2315 63.7981 35.6949 56.1674 39.0881 48.2662C43.3279 40.3989 49.1093 34.7169 57.5002 31.4447C69.3357 27.9039 79.2642 30.0238 89.2912 37.11Z" fill="url(#paint3_linear_152_1591)"/>
    </g>
    <defs>
        <filter id="filter0_d_152_1591" x="-0.662109" y="-3.28906" width="139" height="139" filterUnits="userSpaceOnUse" color-interpolation-filters="sRGB">
            <feFlood flood-opacity="0" result="BackgroundImageFix"/>
            <feColorMatrix in="SourceAlpha" type="matrix" values="0 0 0 0 0 0 0 0 0 0 0 0 0 0 0 0 0 0 127 0" result="hardAlpha"/>
            <feOffset dy="4"/>
            <feGaussianBlur stdDeviation="5"/>
            <feComposite in2="hardAlpha" operator="out"/>
            <feColorMatrix type="matrix" values="0 0 0 0 0.592157 0 0 0 0 0.207843 0 0 0 0 0.996078 0 0 0 0.3 0"/>
            <feBlend mode="normal" in2="BackgroundImageFix" result="effect1_dropShadow_152_1591"/>
            <feBlend mode="normal" in="SourceGraphic" in2="effect1_dropShadow_152_1591" result="shape"/>
        </filter>
        <linearGradient id="paint0_linear_152_1591" x1="68.8397" y1="6" x2="68.8397" y2="118.422" gradientUnits="userSpaceOnUse">
            <stop stop-color="#3D60FB"/>
            <stop offset="1" stop-color="#141FFF"/>
        </linearGradient>
        <linearGradient id="paint1_linear_152_1591" x1="10" y1="62.2108" x2="127.679" y2="62.2108" gradientUnits="userSpaceOnUse">
            <stop stop-color="#AE00FF"/>
            <stop offset="1" stop-color="#5B77FC"/>
        </linearGradient>
        <linearGradient id="paint2_linear_152_1591" x1="68.4242" y1="29.6973" x2="68.4242" y2="94.0837" gradientUnits="userSpaceOnUse">
            <stop offset="0.192308" stop-color="#B228FF"/>
            <stop offset="1" stop-color="#343396"/>
        </linearGradient>
        <linearGradient id="paint3_linear_152_1591" x1="62.7442" y1="29.7617" x2="62.7442" y2="82.6647" gradientUnits="userSpaceOnUse">
            <stop stop-color="#972AE9"/>
            <stop offset="1" stop-color="#4331A2"/>
        </linearGradient>
    </defs>
</svg>
