<svg width="20" height="20" viewBox="0 0 20 20" fill="none" xmlns="http://www.w3.org/2000/svg">
    <path fill-rule="evenodd" clip-rule="evenodd" d="M12.4163 1.15864C11.0565 0.788711 9.62965 0.737024 8.24656 1.00758C6.86348 1.27814 5.56132 1.86368 4.44108 2.71877C3.32084 3.57386 2.41264 4.67552 1.78692 5.93829C1.1612 7.20107 0.834795 8.59101 0.833011 10.0003C0.831896 11.3088 1.11094 12.6024 1.65138 13.7941C2.19183 14.9858 2.98115 16.048 3.96627 16.9093C4.95139 17.7705 6.10949 18.4109 7.3627 18.7873C8.61591 19.1637 9.93519 19.2675 11.2318 19.0916C12.5285 18.9157 13.7724 18.4642 14.8801 17.7676C15.9877 17.0709 16.9334 16.1452 17.6535 15.0526C18.3736 13.96 18.8514 12.726 19.0549 11.4334C19.2583 10.1408 19.1827 8.81958 18.833 7.55864C18.383 7.89197 17.8663 8.1503 17.308 8.30864C17.5593 9.40809 17.56 10.55 17.31 11.6498C17.0601 12.7495 16.5658 13.7789 15.8639 14.6617C15.162 15.5445 14.2705 16.258 13.2553 16.7494C12.2402 17.2408 11.1275 17.4974 9.99968 17.5003C8.9456 17.4977 7.90391 17.2729 6.94254 16.8406C5.98117 16.4083 5.12173 15.7783 4.42024 14.9915C3.71876 14.2047 3.19101 13.2789 2.87139 12.2745C2.55177 11.27 2.44748 10.2094 2.5653 9.16197C2.68313 8.11449 3.02043 7.10361 3.55521 6.19526C4.08999 5.28691 4.81024 4.50149 5.66898 3.89022C6.52772 3.27894 7.50567 2.85555 8.53905 2.64765C9.57243 2.43975 10.638 2.45201 11.6663 2.68364C11.8247 2.1253 12.083 1.60864 12.4163 1.15864Z" fill="white"/>
    <path d="M19.166 3.89183C19.166 4.70295 18.8438 5.48085 18.2702 6.0544C17.6967 6.62795 16.9188 6.95016 16.1077 6.95016C15.2966 6.95016 14.5187 6.62795 13.9451 6.0544C13.3716 5.48085 13.0493 4.70295 13.0493 3.89183C13.0493 3.08071 13.3716 2.30281 13.9451 1.72926C14.5187 1.15571 15.2966 0.833496 16.1077 0.833496C16.9188 0.833496 17.6967 1.15571 18.2702 1.72926C18.8438 2.30281 19.166 3.08071 19.166 3.89183ZM10.8327 9.6585V5.00016H9.16602V10.3418L12.7493 13.9252L13.9243 12.7418L10.841 9.6585H10.8327Z" fill="white"/>
</svg>
