<svg width="19" height="17" viewBox="0 0 19 17" fill="none" xmlns="http://www.w3.org/2000/svg">
    <path d="M16.4675 2.5H13.7838L13.4713 1.5625C13.3206 1.10729 13.0302 0.711211 12.6414 0.430664C12.2525 0.150117 11.7851 -0.000591232 11.3056 1.74314e-06H7.44438C6.96502 -0.000364539 6.49776 0.150442 6.10907 0.430966C5.72038 0.71149 5.43004 1.10745 5.27937 1.5625L4.96625 2.5H2.2825C1.67735 2.50066 1.09717 2.74135 0.66926 3.16926C0.241351 3.59717 0.000661732 4.17735 0 4.7825V13.97C0.00132288 14.5747 0.242304 15.1543 0.670141 15.5816C1.09798 16.009 1.67778 16.2493 2.2825 16.25H16.47C17.0747 16.2487 17.6543 16.0077 18.0816 15.5799C18.509 15.152 18.7493 14.5722 18.75 13.9675V4.78C18.7487 4.17528 18.5077 3.59574 18.0799 3.16838C17.652 2.74101 17.0722 2.50066 16.4675 2.5ZM17.5 13.9675C17.4997 14.2412 17.3908 14.5037 17.1972 14.6972C17.0037 14.8908 16.7412 14.9997 16.4675 15H2.2825C2.00877 14.9997 1.74634 14.8908 1.55278 14.6972C1.35922 14.5037 1.25033 14.2412 1.25 13.9675V4.78C1.25099 4.5067 1.36017 4.24491 1.55366 4.05189C1.74715 3.85887 2.0092 3.75033 2.2825 3.75H5.41687C5.548 3.7499 5.67577 3.70857 5.7821 3.63185C5.88843 3.55512 5.96794 3.4469 6.00937 3.3225L6.465 1.95563C6.53342 1.75003 6.66486 1.57121 6.84066 1.44455C7.01646 1.31789 7.2277 1.24982 7.44438 1.25H11.3056C11.5224 1.24976 11.7337 1.31789 11.9096 1.44468C12.0854 1.57148 12.2168 1.75049 12.285 1.95625L12.7406 3.3225C12.7821 3.4469 12.8616 3.55512 12.9679 3.63185C13.0742 3.70857 13.202 3.7499 13.3331 3.75H16.4675C16.7412 3.75033 17.0037 3.85922 17.1972 4.05278C17.3908 4.24634 17.4997 4.50877 17.5 4.7825V13.9675Z" fill="white"/>
    <path d="M9.375 4.375C8.4479 4.375 7.54162 4.64992 6.77077 5.16499C5.99991 5.68006 5.3991 6.41214 5.04432 7.26867C4.68953 8.1252 4.5967 9.0677 4.77757 9.97699C4.95844 10.8863 5.40488 11.7215 6.06044 12.3771C6.716 13.0326 7.55123 13.4791 8.46052 13.6599C9.3698 13.8408 10.3123 13.748 11.1688 13.3932C12.0254 13.0384 12.7574 12.4376 13.2725 11.6667C13.7876 10.8959 14.0625 9.9896 14.0625 9.0625C14.0612 7.8197 13.5669 6.62819 12.6881 5.7494C11.8093 4.87061 10.6178 4.37632 9.375 4.375ZM9.375 12.5C8.69513 12.5 8.03052 12.2984 7.46523 11.9207C6.89994 11.543 6.45934 11.0061 6.19917 10.378C5.93899 9.74985 5.87092 9.05869 6.00355 8.39188C6.13619 7.72507 6.46358 7.11256 6.94432 6.63182C7.42507 6.15108 8.03757 5.82369 8.70438 5.69105C9.37119 5.55841 10.0624 5.62649 10.6905 5.88666C11.3186 6.14684 11.8555 6.58743 12.2332 7.15273C12.6109 7.71802 12.8125 8.38263 12.8125 9.0625C12.8115 9.97388 12.449 10.8476 11.8046 11.4921C11.1601 12.1365 10.2864 12.499 9.375 12.5Z" fill="white"/>
</svg>
