<svg width="20" height="20" viewBox="0 0 20 20" fill="none" xmlns="http://www.w3.org/2000/svg">
    <path d="M9.8255 19.6515C9.82483 19.6515 9.82483 19.6515 9.8255 19.6515C7.1945 19.6515 4.726 18.631 2.8735 16.7785C1.021 14.926 0 12.4565 0 9.8265C0 7.1965 1.0205 4.728 2.8735 2.8755C4.7275 1.021 7.197 0 9.826 0C12.4535 0 14.9225 1.0215 16.777 2.876C20.6095 6.709 20.6095 12.946 16.777 16.779C14.9235 18.631 12.455 19.6515 9.8255 19.6515ZM9.826 0.5C7.3305 0.5 4.987 1.4695 3.227 3.229C1.4685 4.9875 0.5 7.3305 0.5 9.8265C0.5 12.3225 1.4685 14.6665 3.227 16.425C4.9855 18.1835 7.3285 19.1515 9.825 19.1515C12.321 19.1515 14.6645 18.183 16.423 16.425C20.0605 12.787 20.0605 6.8675 16.423 3.229C14.663 1.469 12.32 0.5 9.826 0.5Z" fill="white"/>
    <path d="M8.41005 17.6713C8.36539 17.6713 8.31822 17.6642 8.26855 17.6498C8.15783 17.6133 8.06406 17.538 8.00459 17.4377C7.94512 17.3374 7.92397 17.219 7.94505 17.1043L9.14406 10.9998L6.95855 10.3868C6.88962 10.3674 6.82599 10.3326 6.77245 10.285C6.71891 10.2374 6.67684 10.1783 6.64941 10.1122C6.62199 10.046 6.60991 9.97449 6.61409 9.90299C6.61827 9.83148 6.6386 9.76186 6.67355 9.69934L10.7941 2.22484C10.8505 2.12615 10.94 2.0506 11.0468 2.01153C11.1536 1.97246 11.2707 1.97239 11.3776 2.01134C11.4839 2.05031 11.5725 2.12651 11.6269 2.2258C11.6813 2.32509 11.6979 2.44076 11.6736 2.55134L10.6006 7.85634L12.6766 8.35034C12.8216 8.38984 12.9356 8.48334 12.9956 8.60884C13.0264 8.67419 13.042 8.74572 13.041 8.81798C13.0401 8.89024 13.0226 8.96133 12.9901 9.02584L8.83555 17.4073C8.79625 17.4866 8.7356 17.5533 8.66042 17.6C8.58524 17.6466 8.49853 17.6713 8.41005 17.6713ZM11.1506 2.61334L7.11055 9.94184L9.50105 10.5808C9.62655 10.6158 9.70405 10.7418 9.67855 10.8698L8.47155 17.0133L12.5421 8.80184L10.2486 8.28684C10.1854 8.27191 10.1305 8.23298 10.0955 8.1783C10.0605 8.12362 10.0481 8.05747 10.0611 7.99384L11.1506 2.61334Z" fill="white"/>
</svg>
