<svg width="16" height="18" viewBox="0 0 16 18" fill="none" xmlns="http://www.w3.org/2000/svg">
<path d="M7.78333 9.58333C5.14167 9.58333 2.99167 7.43333 2.99167 4.79167C2.99167 2.15 5.14167 0 7.78333 0C10.425 0 12.575 2.15 12.575 4.79167C12.575 7.43333 10.425 9.58333 7.78333 9.58333ZM7.78333 1.25C5.83333 1.25 4.24167 2.84167 4.24167 4.79167C4.24167 6.74167 5.83333 8.33333 7.78333 8.33333C9.73333 8.33333 11.325 6.74167 11.325 4.79167C11.325 2.84167 9.73333 1.25 7.78333 1.25ZM14.9417 17.9167C14.6 17.9167 14.3167 17.6333 14.3167 17.2917C14.3167 14.4167 11.3833 12.0833 7.78333 12.0833C4.18333 12.0833 1.25 14.4167 1.25 17.2917C1.25 17.6333 0.966667 17.9167 0.625 17.9167C0.283333 17.9167 0 17.6333 0 17.2917C0 13.7333 3.49167 10.8333 7.78333 10.8333C12.075 10.8333 15.5667 13.7333 15.5667 17.2917C15.5667 17.6333 15.2833 17.9167 14.9417 17.9167Z" fill="white"/>
</svg>
