<svg width="22" height="22" viewBox="0 0 22 22" fill="none" xmlns="http://www.w3.org/2000/svg">
    <path d="M18.6673 7.59654H13.947V2.66819C13.947 1.95663 13.6689 1.28666 13.1646 0.78238C12.9176 0.533813 12.6237 0.336685 12.3 0.202394C11.9763 0.068103 11.6292 -0.000685834 11.2788 5.15448e-06H2.66819C1.19694 5.15448e-06 0 1.19694 0 2.66819V8.40847C0 9.87972 1.19694 11.0767 2.66819 11.0767H2.86997V12.7136C2.86906 12.8756 2.90022 13.0362 2.96164 13.1861C3.02307 13.3361 3.11355 13.4723 3.22787 13.5871C3.3422 13.7019 3.4781 13.793 3.62777 13.855C3.77743 13.9171 3.93789 13.9489 4.09991 13.9487C4.42269 13.9487 4.73756 13.8205 4.96891 13.5819L7.38891 11.175V16.0047C7.38891 17.4756 8.58722 18.6725 10.0598 18.6725H13.8483L16.3618 21.1726C16.5313 21.3481 16.7494 21.4688 16.9881 21.5191C17.2269 21.5694 17.4752 21.547 17.7011 21.4548C17.9286 21.3629 18.1234 21.2049 18.2602 21.0011C18.3969 20.7974 18.4694 20.5573 18.4683 20.3118V18.6722H18.6673C20.1403 18.6722 21.3386 17.4756 21.3386 16.0043V10.2637C21.3386 8.79347 20.1403 7.59654 18.6673 7.59654ZM7.27478 10.0454C7.13846 10.0454 7.0077 10.0995 6.91109 10.1956L4.235 12.8573C4.20934 12.8861 4.17522 12.906 4.13754 12.9141C4.09986 12.9223 4.06057 12.9183 4.02531 12.9027C3.98726 12.8884 3.95474 12.8623 3.93244 12.8284C3.91014 12.7944 3.8992 12.7542 3.90122 12.7136V10.561C3.90122 10.4243 3.84689 10.2931 3.7502 10.1964C3.6535 10.0997 3.52235 10.0454 3.38559 10.0454H2.66819C2.23418 10.045 1.81809 9.87235 1.5112 9.56546C1.20431 9.25857 1.03171 8.84248 1.03125 8.40847V2.66819C1.03171 2.23419 1.20431 1.81809 1.5112 1.51121C1.81809 1.20432 2.23418 1.03171 2.66819 1.03126H11.2784C11.715 1.03126 12.1254 1.20176 12.4352 1.51147C12.5877 1.66286 12.7087 1.84303 12.7912 2.04153C12.8736 2.24003 12.9158 2.45291 12.9154 2.66785V8.40813C12.9148 8.84216 12.7421 9.25826 12.4352 9.56514C12.1283 9.87201 11.7121 10.0446 11.2781 10.0451H7.27478V10.0454ZM20.3074 16.0047C20.3065 16.439 20.1333 16.8553 19.8258 17.1621C19.5183 17.4689 19.1017 17.6413 18.6673 17.6413H17.9527C17.8159 17.6413 17.6848 17.6956 17.5881 17.7923C17.4914 17.889 17.4371 18.0201 17.4371 18.1569V20.3122C17.4389 20.3525 17.428 20.3923 17.4058 20.4259C17.3836 20.4596 17.3514 20.4853 17.3137 20.4995C17.2679 20.5178 17.1813 20.5363 17.0957 20.4487L14.4248 17.7918C14.3281 17.6957 14.1974 17.6417 14.0611 17.6416H10.0598C9.62554 17.6415 9.20899 17.4692 8.9016 17.1623C8.59421 16.8555 8.42107 16.4393 8.42016 16.005V11.0767H11.2781C12.6754 11.0767 13.8229 9.99694 13.9353 8.62813H18.667C19.5714 8.62813 20.307 9.36204 20.307 10.2644L20.3074 16.0047Z" fill="white"/>
    <path d="M11.1714 12.3772C10.752 12.3772 10.4106 12.7188 10.4106 13.1379C10.4106 13.5569 10.7523 13.8986 11.1714 13.8986C11.5911 13.8986 11.9328 13.5569 11.9328 13.1379C11.9328 12.7188 11.5914 12.3772 11.1714 12.3772ZM14.3634 12.3772C13.944 12.3772 13.6027 12.7188 13.6027 13.1379C13.6027 13.5569 13.9444 13.8986 14.3634 13.8986C14.7831 13.8986 15.1248 13.5569 15.1248 13.1379C15.1248 12.7188 14.7831 12.3772 14.3634 12.3772ZM17.5555 12.3772C17.1361 12.3772 16.7948 12.7188 16.7948 13.1379C16.7948 13.5569 17.1365 13.8986 17.5555 13.8986C17.9752 13.8986 18.3169 13.5569 18.3169 13.1379C18.3169 12.7188 17.9752 12.3772 17.5555 12.3772ZM6.80298 7.2759C6.5053 7.2759 6.26398 7.52409 6.26398 7.82212C6.26398 8.11293 6.49808 8.36834 6.80298 8.36834C7.10789 8.36834 7.3492 8.11293 7.3492 7.82212C7.3492 7.52409 7.10102 7.2759 6.80298 7.2759ZM6.90817 2.7085C5.81092 2.7085 5.30664 3.35887 5.30664 3.79784C5.30664 4.11478 5.57477 4.26121 5.79442 4.26121C6.23339 4.26121 6.05464 3.63525 6.88377 3.63525C7.29008 3.63525 7.61527 3.814 7.61527 4.188C7.61527 4.62696 7.16014 4.87893 6.89202 5.1065C6.6562 5.30965 6.34717 5.64309 6.34717 6.34228C6.34717 6.76509 6.46095 6.88678 6.79439 6.88678C7.1928 6.88678 7.27392 6.70803 7.27392 6.55334C7.27392 6.13053 7.28217 5.88681 7.72905 5.53721C7.94836 5.36637 8.6393 4.81362 8.6393 4.04946C8.63964 3.28565 7.9487 2.7085 6.90817 2.7085Z" fill="white"/>
</svg>
