<svg width="20" height="20" viewBox="0 0 20 20" fill="none" xmlns="http://www.w3.org/2000/svg">
    <path d="M12.9169 11.2501C12.9169 12.9168 10.8335 14.1668 10.8335 15.4168H9.16686C9.16686 14.1668 7.08352 12.9168 7.08352 11.2501C7.08352 9.64178 8.39186 8.33345 10.0002 8.33345C11.6085 8.33345 12.9169 9.64178 12.9169 11.2501ZM10.8335 16.2501H9.16686V16.6668C9.16686 17.1251 9.54186 17.5001 10.0002 17.5001C10.4585 17.5001 10.8335 17.1251 10.8335 16.6668V16.2501ZM15.8335 10.8334C15.8335 11.9918 15.4919 13.0751 14.9002 13.9834C14.7996 14.1434 14.7564 14.3328 14.7776 14.5205C14.7988 14.7083 14.8831 14.8833 15.0169 15.0168C15.3835 15.3834 16.0169 15.3334 16.3002 14.8918C17.0858 13.6843 17.5028 12.2741 17.5002 10.8334C17.5002 8.86678 16.7419 7.07511 15.5002 5.73345C15.1752 5.38345 14.6252 5.37511 14.2919 5.70845C13.9752 6.02511 13.9752 6.53345 14.2752 6.86678C15.2785 7.94379 15.8354 9.36154 15.8335 10.8334ZM13.0419 3.87511L10.7169 1.55011C10.6589 1.49057 10.5845 1.44968 10.5032 1.43267C10.4218 1.41566 10.3373 1.4233 10.2603 1.45463C10.1834 1.48595 10.1175 1.53952 10.0711 1.60849C10.0248 1.67746 10.0001 1.75869 10.0002 1.84178V3.33345C8.65234 3.33376 7.32948 3.6973 6.17076 4.38582C5.01203 5.07433 4.06027 6.06238 3.41556 7.24605C2.77086 8.42971 2.45705 9.76524 2.50713 11.1122C2.55722 12.4591 2.96936 13.7676 3.70019 14.9001C3.98352 15.3418 4.61686 15.3918 4.98352 15.0251C5.25852 14.7501 5.30852 14.3251 5.10019 14.0001C3.94186 12.2084 3.73352 9.75011 5.20852 7.33345C6.20852 5.70845 8.09186 4.84178 10.0002 5.00011V6.49178C10.0002 6.86678 10.4502 7.05012 10.7085 6.78345L13.0335 4.45845C13.2002 4.30011 13.2002 4.03345 13.0419 3.87511Z" fill="white"/>
</svg>
