<svg width="20" height="20" viewBox="0 0 20 20" fill="none" xmlns="http://www.w3.org/2000/svg">
    <path d="M14.211 9.10607L7.737 5.86807C7.55398 5.77649 7.35058 5.73323 7.14614 5.74242C6.94169 5.75161 6.74299 5.81293 6.56892 5.92056C6.39485 6.02818 6.2512 6.17854 6.15163 6.35733C6.05205 6.53613 5.99985 6.73742 6 6.94207V13.0581C5.99985 13.2627 6.05205 13.464 6.15163 13.6428C6.2512 13.8216 6.39485 13.972 6.56892 14.0796C6.74299 14.1872 6.94169 14.2485 7.14614 14.2577C7.35058 14.2669 7.55398 14.2237 7.737 14.1321L14.211 10.8941C14.3769 10.8109 14.5164 10.6833 14.6138 10.5254C14.7113 10.3675 14.7629 10.1856 14.7629 10.0001C14.7629 9.81452 14.7113 9.63263 14.6138 9.47475C14.5164 9.31686 14.3769 9.18921 14.211 9.10607Z" stroke="white" stroke-width="2" stroke-linecap="round" stroke-linejoin="round"/>
    <path d="M10 19C14.9706 19 19 14.9706 19 10C19 5.02944 14.9706 1 10 1C5.02944 1 1 5.02944 1 10C1 14.9706 5.02944 19 10 19Z" stroke="white" stroke-width="2"/>
</svg>
