<svg width="18" height="19" viewBox="0 0 18 19" fill="none" xmlns="http://www.w3.org/2000/svg">
    <path d="M6.92725 1.9872C5.601 1.9872 3.56766 2.75261 4.27475 7.49261C4.28586 7.56428 4.29905 7.64164 4.31433 7.7247C4.4435 8.43761 4.64266 9.54136 3.37516 10.4514C4.23725 11.1589 5.46516 11.8659 6.95725 12.1722C6.8982 12.5106 6.82424 12.8462 6.73558 13.178C6.61433 13.623 6.36016 13.9384 5.906 14.073C5.506 14.1914 5.08683 14.2872 4.65766 14.3855C4.54711 14.4105 4.436 14.4361 4.32433 14.4622C3.78891 14.5868 3.24308 14.7247 2.75933 14.9197C2.27433 15.1155 1.8235 15.3793 1.49766 15.7726C1.166 16.1739 0.988495 16.6797 1.00058 17.3122C1.00475 17.5089 1.17308 17.6664 1.37975 17.6664H16.4539C16.6606 17.6664 16.8289 17.5089 16.8331 17.3122C16.8452 16.6797 16.6681 16.1739 16.336 15.7726C16.0106 15.3793 15.5593 15.1151 15.0747 14.9197C14.5906 14.7243 14.0447 14.5864 13.5089 14.4618L13.1764 14.3855C12.7468 14.2872 12.3277 14.1914 11.9277 14.073C11.4735 13.9384 11.2193 13.623 11.0981 13.178C10.9922 12.7829 10.9079 12.3823 10.8456 11.978C11.9864 11.6347 13.1989 11.0176 14.4585 10.0322L14.4527 10.0264C13.8614 9.46053 12.7531 8.3997 12.6743 5.88136C12.6743 2.41386 10.4635 -0.633638 6.92725 1.9872Z" stroke="white" stroke-width="2" stroke-linejoin="round"/>
</svg>
